Coordinates
version=1
nRows=8
nColumns=42
inDegrees=yes

Units are S.I. units (second, meters, Newtons, ...)
If the header above contains a line with 'inDegrees', this indicates whether rotational values are in degrees (yes) or radians (no).

endheader
time	pelvis_tilt	pelvis_list	pelvis_rotation	pelvis_tx	pelvis_ty	pelvis_tz	hip_flexion_r	hip_adduction_r	hip_rotation_r	knee_angle_r	knee_adduction_r	knee_angle_r_beta	ankle_angle_r	subtalar_angle_r	mtp_angle_r	hip_flexion_l	hip_adduction_l	hip_rotation_l	knee_angle_l	knee_adduction_l	knee_angle_l_beta	ankle_angle_l	subtalar_angle_l	mtp_angle_l	lumbar_extension	lumbar_bending	lumbar_rotation	arm_flex_r	arm_add_r	arm_rot_r	elbow_flex_r	pro_sup_r	wrist_flex_r	wrist_dev_r	arm_flex_l	arm_add_l	arm_rot_l	elbow_flex_l	pro_sup_l	wrist_flex_l	wrist_dev_l
      1.20000000	     -1.97738657	     -0.16528033	     -6.15577447	      0.00100139	      0.84497386	     -0.34996160	    -13.89231700	     -1.74675492	      3.18843032	     17.85812253	      8.03000471	      0.31168304	      7.09304087	     -1.17654799	     -7.56919358	     23.06711664	     -4.87010815	     -8.38452083	     11.82851881	      9.40482854	      0.20644660	      6.89117888	     -4.68622069	     -7.56919358	     -5.49835483	     -2.80245963	     12.58246250	     12.25195977	    -18.59712821	      8.80437774	     41.20487063	     90.00000001	      0.00000000	      0.00000000	     -5.95792316	    -11.69711897	    -22.03252230	     33.55656650	     90.00000001	      0.00000000	      0.00000000
      1.21000000	     -1.94100823	      0.33901977	     -6.20173923	      0.01417967	      0.84545402	     -0.35066608	    -13.21006304	     -2.51598337	      2.69931410	     20.74489192	      8.14336066	      0.36206667	      5.07866190	     -2.40571458	     -7.56760256	     22.60528504	     -4.09895241	     -7.94841857	     12.59578146	      9.34849951	      0.21983786	      6.56288594	     -5.12574696	     -7.56760256	     -5.33712606	     -3.43534017	     12.58929496	     11.82434406	    -18.35062727	      8.44659172	     41.07229070	     90.00000001	      0.00000000	      0.00000000	     -5.97186606	    -11.87022179	    -22.18292926	     33.35834898	     90.00000001	      0.00000000	      0.00000000
      1.22000000	     -1.93352835	      0.84309941	     -6.20120075	      0.02728185	      0.84602781	     -0.35139057	    -12.32550535	     -3.26773044	      2.15934373	     23.87123517	      8.21004525	      0.41663165	      2.86851629	     -3.69181054	     -7.56582604	     22.12745206	     -3.33867290	     -7.28268179	     13.30431730	      9.35662430	      0.23220414	      6.14903333	     -5.78019706	     -7.56582604	     -5.17116315	     -4.05742874	     12.49593466	     11.38789125	    -18.09082384	      8.07280904	     40.90547770	     90.00000001	      0.00000000	      0.00000000	     -5.98847755	    -12.09554195	    -22.27422396	     33.17828397	     90.00000001	      0.00000000	      0.00000000
      1.23000000	     -1.90577860	      1.32564595	     -6.15373085	      0.04042387	      0.84677293	     -0.35209550	    -11.32778128	     -3.96727392	      1.55266684	     27.15758492	      8.17778875	      0.47398927	      0.50177572	     -5.04655932	     -7.56406797	     21.55613154	     -2.60547329	     -6.46318000	     13.89924095	      9.42944645	      0.24258752	      5.72878207	     -6.55446911	     -7.56406797	     -5.02659827	     -4.67016925	     12.33196214	     10.91260825	    -17.76693641	      7.74156102	     40.70340381	     90.00000001	      0.00000000	      0.00000000	     -6.00585607	    -12.31384431	    -22.30233832	     33.02884801	     90.00000001	      0.00000000	      0.00000000
      1.24000000	     -2.14213991	      1.89727851	     -5.97412398	      0.05307131	      0.84730969	     -0.35344576	     -9.74726363	     -4.82421326	      0.92070287	     30.88818074	      8.25781158	      0.53910045	     -1.89745885	     -6.77771980	     -7.55873537	     21.10249013	     -1.69734882	     -4.70405167	     13.91689022	      9.67770636	      0.24289556	      4.43716245	     -9.40560485	     -7.55873537	     -4.65614270	     -5.26460754	     12.03081527	     10.45014049	    -17.49422107	      7.21637500	     40.37126796	     90.00000001	      0.00000000	      0.00000000	     -5.91502090	    -12.45430499	    -22.25342767	     32.87162737	     90.00000001	      0.00000000	      0.00000000
      1.25000000	     -1.82578348	      2.33678345	     -5.87652649	      0.06626301	      0.84855009	     -0.35422837	     -8.80784137	     -5.44683979	      0.04117336	     34.37888158	      7.81907740	      0.60002468	     -4.55421607	     -8.23055932	     -7.55737056	     20.04781180	     -1.05931570	     -4.15610526	     14.25022069	      9.88469422	      0.24871327	      4.53802718	     -9.50027282	     -7.55737056	     -4.87047240	     -5.82415487	     11.73453500	      9.99842901	    -17.24133822	      7.03324350	     40.09682094	     90.00000001	      0.00000000	      0.00000000	     -5.85972461	    -12.65369998	    -22.19572592	     32.82780044	     90.00000001	      0.00000000	      0.00000000
      1.26000000	     -2.03214928	      3.01023341	     -5.64191418	      0.07899697	      0.84921870	     -0.35552920	     -7.05870424	     -6.38770629	     -0.58274821	     38.14762114	      7.69545089	      0.66580159	     -7.03472745	    -10.49164906	     -7.55520906	     19.53897985	     -0.07334149	     -3.13747810	     14.31467332	      9.96912482	      0.24983818	      4.00837131	    -10.50230542	     -7.55520906	     -4.51087959	     -6.54516836	     11.30969828	      9.47491018	    -16.90721506	      6.63329717	     39.73538488	     90.00000001	      0.00000000	      0.00000000	     -5.81394967	    -12.87634889	    -22.03201609	     32.77308004	     90.00000001	      0.00000000	      0.00000000
      1.27000000	     -1.78913337	      3.45031575	     -5.55854632	      0.09188296	      0.85049730	     -0.35629697	     -5.77534123	     -6.92715870	     -1.35700531	     41.67075593	      6.94811090	      0.72729189	     -9.29818155	    -12.18871872	     -7.55418018	     18.35785009	      0.51156731	     -2.54221633	     14.18859286	     10.24832494	      0.24763766	      4.19448499	    -10.85190337	     -7.55418018	     -4.68031562	     -7.07137255	     10.97151745	      9.03031767	    -16.63489964	      6.44954560	     39.35471007	     90.00000001	      0.00000000	      0.00000000	     -5.69508982	    -13.05695842	    -21.93400881	     32.73842634	     90.00000001	      0.00000000	      0.00000000
